<?xml version="1.0" encoding="utf-8" ?><svg xmlns="http://www.w3.org/2000/svg" xmlns:xlink="http://www.w3.org/1999/xlink" width="2579" height="1452" viewBox="0 0 2579 1452"><defs><linearGradient id="gradient_0" gradientUnits="userSpaceOnUse" x1="801.20587" y1="696.14069" x2="440.94296" y2="944.14844"><stop offset="0" stop-color="#3BC6A9"/><stop offset="1" stop-color="#1695F1"/></linearGradient></defs><path fill="url(#gradient_0)" transform="matrix(0.915838 0 0 0.945312 0 -0.000244141)" d="M483.803 826.009L484.297 825.053C488.781 816.247 491.984 806.518 495.551 797.298C501.666 781.492 507.772 765.8 513.441 749.823C516.894 740.09 519.85 727.478 525.228 718.751C526.846 716.124 528.699 714.481 531.645 713.457C535.056 712.271 540.068 712.279 543.349 713.861C558.173 721.008 580.916 827.831 589.148 832.832C591.889 831.243 596.202 803.341 597.2 798.135C602.608 770.02 607.577 741.822 612.104 713.552C623.565 644.444 637.22 574.529 648.882 505.354C650.293 496.985 659.095 490.976 667.281 493.76C676.704 496.796 677.633 506.457 678.798 514.797C682.199 539.14 685.405 563.526 688.585 587.905L721.592 839.341C725.609 869.417 730.904 927.055 737.667 954.587C739.163 949.012 741.956 939.794 742.965 934.408C746.787 934.449 747.86 934.185 751.206 935.742L751.904 937.409L751.306 938.129C749.924 939.81 748.924 940.638 748.544 942.739C750.577 946.302 749.944 945.199 753.849 947.593C761.151 948.191 761.616 942.343 764.914 945.67C765.855 950.033 765.811 953.127 765.929 957.528C763.134 968.811 747.876 1033.76 744.157 1038.66C742.297 1041.11 738.895 1041.8 735.988 1042.14C731.698 1042.64 726.058 1042.59 722.626 1039.57C719.496 1036.82 718.561 1030.01 717.848 1026.08C709.532 980.274 705.558 933.247 699.348 887.086L677.339 719.28C674.442 696.801 670.791 673.829 668.277 651.39C667.688 645.329 665.296 618.325 660.94 615.324C657.131 619.283 654.95 640.054 653.868 646.67C645.115 691.766 636.835 736.953 629.031 782.223C624.73 809.438 619.813 836.551 614.282 863.543C611.806 876.038 609.494 887.683 606.497 900.31C603.278 913.875 585.089 911.323 580.607 903.42C575.559 894.52 572.862 878.054 568.748 868.209C556.578 836.643 548.698 801.3 536.185 770.141C531.174 782.568 511.029 848.45 502.077 852.11C489.813 857.124 393.491 855.356 373.765 854.695C358.338 844.231 361.89 826.099 379.316 825.561C413.568 824.504 449.68 827.492 483.803 826.009Z"/><path fill="#47D596" transform="matrix(0.915838 0 0 0.945312 0 -0.000244141)" d="M1039.07 569.496C1061.33 561.028 1083.53 552.421 1105.68 543.678C1120.79 537.658 1137.59 530.331 1152.81 525.356C1150.78 549.611 1146 574.678 1143.56 599.024C1141.97 614.834 1139.43 632.537 1135.89 647.927C1127.71 642.497 1107.1 623.441 1098.96 616.248C1092.43 622.661 1082.88 636.221 1076.93 644.069L1042.76 688.44C1039 693.306 1030.96 704.245 1026.95 708.198C1023.55 713.533 1009.81 731.995 1005.39 736.045C1003.07 740.457 989.391 757.31 985.612 762.131C974.68 776.076 963.264 792.171 951.785 805.475C937.591 790.905 924.72 775.489 911.149 760.431C904.848 753.44 892.909 739.491 885.77 734.267C875.656 747.714 857.994 772.811 847.436 784.929L845.888 783.861C845.845 780.928 848.216 778.731 850.031 775.026L849.584 774.308C848.238 775.395 846.738 777.103 845.461 777.023L844.728 774.305C842.094 772.883 842.122 773.015 839.277 772.863C839.037 775.504 841.21 777.534 843.043 780.27C841.012 786.86 836.017 784.164 834.511 788.073L836.343 789.218C834.862 791.465 835.841 790.86 833.748 791.801C830.758 788.541 824.004 782.634 822.278 780.467C823.699 777.629 823.683 778.375 827.242 776.584C828.497 767.757 834.062 766.331 833.964 762.236C833.299 762.631 827.497 769.277 826.614 770.246L825.719 769.649L825.731 766.248L883.131 690.614C890.286 695.939 901.456 708.818 907.94 715.721C921.959 730.646 935.692 745.942 949.829 760.782C956.456 754.313 967.072 739.734 972.944 731.985C982.974 718.741 993.095 705.566 1003.31 692.46L1047.69 635.224C1056.74 623.668 1067.59 610.543 1075.76 598.563C1065.15 589.009 1050.61 579.301 1039.07 569.496Z"/><path fill="#FBFBFB" transform="matrix(0.915838 0 0 0.945312 0 -0.000244141)" d="M1138.75 715.162C1145.78 714.793 1153.93 715.005 1161.05 715.019C1181.85 744.468 1200.51 780.366 1220.84 810.521C1240.04 779.586 1259.23 746.335 1278.08 714.992L1301.54 715.037C1303.59 760.391 1301.63 815.633 1302.19 862.131L1275.04 862.142C1275.22 844.678 1275.28 827.214 1275.21 809.75C1275.2 795.224 1275.28 781.465 1274.27 766.941C1268.22 773.912 1263.04 783.963 1258.12 791.796C1247.61 808.509 1237.46 828.695 1226.35 844.737C1223.13 844.853 1218.96 845.301 1215.85 844.507C1210.9 843.247 1173.07 778.357 1165.64 767.942C1164.38 796.097 1165.08 833.553 1165.41 862.077L1138.49 862.183C1138.44 814.179 1137.51 762.806 1138.75 715.162Z"/><defs><linearGradient id="gradient_1" gradientUnits="userSpaceOnUse" x1="2017.1044" y1="762.91205" x2="1894.339" y2="794.90564"><stop offset="0" stop-color="#2FB6C4"/><stop offset="1" stop-color="#19A2E6"/></linearGradient></defs><path fill="url(#gradient_1)" transform="matrix(0.915838 0 0 0.945312 0 -0.000244141)" d="M1904.93 716.614C1920.75 716.685 1969.28 715.779 1982.74 718.766C1990.14 720.406 1997.13 723.536 2003.28 727.963C2035.86 751.646 2025.3 804.597 1987.37 815.616C1983.27 816.806 1979.43 817.415 1975.23 818.022C1962.13 819.182 1944.46 818.293 1931.02 817.908C1931.06 832.628 1931.19 847.348 1931.39 862.067L1905.56 862.051L1904.83 763.369C1904.8 748.798 1904.13 730.912 1904.93 716.614ZM1931.04 795.022C1946.83 795.4 1975.45 797.936 1987.56 788.256C2001.34 773.32 1998.01 746.838 1976.44 741.475C1963.6 738.281 1944.61 739.697 1931.11 739.989C1930.74 758.331 1930.72 776.679 1931.04 795.022Z"/><path fill="#31B9BC" transform="matrix(0.915838 0 0 0.945312 0 -0.000244141)" d="M1941.65 735.173C1950.24 735.446 1960.11 733.76 1968.56 736.494L1968.69 737.744L1964.02 738.052C1955.12 737.788 1940.41 738.595 1932.12 737.379C1933.43 736.118 1939.31 735.57 1941.65 735.173Z"/><path fill="#FBFBFB" transform="matrix(0.915838 0 0 0.945312 0 -0.000244141)" d="M1723.3 749.234C1753.13 745.509 1780.31 759.342 1788.01 789.907C1790.13 798.314 1789.96 805.515 1790.05 814.093C1760.75 814.123 1729.46 813.39 1700.35 814.157C1710.68 839.588 1729.59 847.099 1756.64 837.147C1759.16 836.219 1762.79 833.466 1765.1 831.864L1767.02 830.378C1772.26 830.844 1779.54 839.986 1783.57 844.24C1763.12 866.285 1724.02 870.872 1699.55 853.24C1657.24 822.76 1669.1 759.951 1723.3 749.234ZM1700.89 796.559C1713.51 796.841 1726.13 796.884 1738.75 796.689L1765.18 796.75C1759.86 774.317 1747.44 768.358 1725.5 770.399C1709.65 775.189 1705.35 781.222 1700.89 796.559Z"/><path fill="#FBFBFB" transform="matrix(0.915838 0 0 0.945312 0 -0.000244141)" d="M1367.7 749.335C1385.55 746.761 1407.42 747.821 1420.76 761.468C1426.04 766.938 1429.76 773.726 1431.52 781.123C1434.68 793.842 1433.26 845.502 1433.12 862.145L1408.48 862.054L1407.61 850.008C1387.88 867.52 1357.61 869.496 1337.95 851.006C1333.67 845.938 1330.77 840.518 1329.76 833.92C1328.49 825.738 1330.56 817.387 1335.5 810.746C1354.4 785.343 1399.85 801.3 1405.86 792.797C1406.16 776.792 1392.67 770.515 1378.87 770.238C1365.19 769.962 1355.39 775.082 1343.99 781.574C1340.84 775.238 1337.3 769.075 1333.85 762.898C1345.68 754.787 1353.44 751.464 1367.7 749.335ZM1355.32 830.097C1364.06 848.949 1390.31 848.141 1402.69 833.279C1408.13 826.762 1407.21 820.976 1405.96 813.188C1392.91 813.814 1378.1 812.729 1365.41 814.8C1359.02 818.667 1357.66 819.869 1355.84 827.582C1355.64 828.415 1355.47 829.254 1355.32 830.097Z"/><path fill="#47D596" transform="matrix(0.915838 0 0 0.945312 0 -0.000244141)" d="M2349.25 840.063C2333.52 820.759 2337.45 782.056 2355.5 764.937C2377.37 744.196 2414.87 743.468 2436.13 765.474C2450.09 779.922 2451.37 795.516 2450.91 814.143L2392.48 814.464C2386.79 814.492 2373.05 813.775 2368.23 815.064L2367.04 817.156C2367.24 820.554 2368.5 823.91 2370.41 826.71C2384.37 847.187 2411.07 844.134 2428.96 831.946C2434.55 830.856 2441.2 840.516 2445.01 844.75C2421.62 872.07 2369.27 869.831 2349.25 840.063ZM2363.93 796.528L2400.75 796.66C2405.79 796.733 2421.22 797.434 2424.92 796.027C2426.35 792.925 2426.01 792.659 2424.84 789.221C2419.6 773.766 2404.16 769.751 2389.44 771.184C2373.06 776.097 2370.58 781.741 2363.93 796.528Z"/><path fill="#FBFBFB" transform="matrix(0.915838 0 0 0.945312 0 -0.000244141)" d="M1553.51 706.511C1562.07 706.97 1571.47 706.712 1580.09 706.656C1579.86 737.345 1580.29 768.826 1580.4 799.565C1598.68 783.134 1615.81 766.364 1633.89 750.01L1666.08 750.053C1650.23 764.859 1633.83 781.469 1618.23 796.67C1626.39 805.551 1640.82 824.766 1648.78 834.794L1670.6 862.089C1659.98 862.383 1648.72 862.259 1638.05 862.319C1627.71 851.114 1610.14 826.999 1600.19 814.143C1594.3 819.013 1586.1 827.108 1580.3 832.483C1579.97 842.133 1580.18 852.479 1580.23 862.192L1553.51 862.446L1553.51 706.511Z"/><path fill="#3FCAA7" transform="matrix(0.915838 0 0 0.945312 0 -0.000244141)" d="M2268.24 750.377C2286.63 748.869 2305.64 749.831 2322.01 758.859C2320.17 763.857 2315.64 772.764 2313.24 777.878C2304.36 774.748 2261.16 760.631 2259.67 784.179C2260.63 792.902 2277.4 795.568 2284.11 796.115C2315.12 798.645 2339.1 818.1 2318.34 849.245C2312.16 858.508 2295.23 862.197 2283.67 863.096C2261.92 864.271 2249.94 862.866 2231.45 850.98C2232.51 847.763 2237.14 832.001 2241.29 833.596C2252.97 838.077 2288.29 850.017 2298.01 836.909C2306.99 824.785 2291.76 819.122 2280.35 817.847C2252.52 814.734 2219.26 802.346 2238.73 768.054C2244.81 757.308 2256.48 753.008 2268.24 750.377Z"/><path fill="#31B9BC" transform="matrix(0.915838 0 0 0.945312 0 -0.000244141)" d="M2050.23 840.343L2049.95 839.729C2048.63 836.724 2046.44 832.165 2046.41 828.906C2046.24 812.062 2042.4 767.531 2046.7 753.297C2050.43 749.928 2065.62 751.23 2071.3 751.344C2071.37 760.121 2071.42 768.383 2071.07 777.163C2071.89 790.385 2071.22 803.141 2071.89 817.2C2073.05 841.627 2098.29 845.123 2115.52 834.594C2120.73 831.408 2124.95 820.486 2125.77 814.227L2126.79 819.893L2128.05 820.271C2129.61 811.566 2131.64 766.235 2129.89 757.825L2130.6 756.588C2131.57 759.022 2130.83 758.544 2132.47 759.534L2133.49 756.773C2138.43 755.356 2140.6 755.597 2144.98 754.625C2149.04 758.385 2147.83 762.255 2147.57 767.686C2146.08 798.25 2147.91 829.444 2147.51 860C2141.87 859.966 2133.05 859.553 2127.83 860.81C2126.55 857.281 2128.49 853.56 2124.86 851.056C2121.66 853.366 2118.31 855.465 2114.83 857.341C2091.8 869.525 2062.61 865.246 2050.23 840.343Z"/><path fill="#31B9BC" transform="matrix(0.915838 0 0 0.945312 0 -0.000244141)" d="M825.731 766.248L825.719 769.649L826.614 770.246C827.497 769.277 833.299 762.631 833.964 762.236C834.062 766.331 828.497 767.757 827.242 776.584C823.683 778.375 823.699 777.629 822.278 780.467C824.004 782.634 830.758 788.541 833.748 791.801C835.841 790.86 834.862 791.465 836.343 789.218L834.511 788.073C836.017 784.164 841.012 786.86 843.043 780.27C841.21 777.534 839.037 775.504 839.277 772.863C842.122 773.015 842.094 772.883 844.728 774.305L845.461 777.023C846.738 777.103 848.238 775.395 849.584 774.308L850.031 775.026C848.216 778.731 845.845 780.928 845.888 783.861L847.436 784.929C836.576 801.021 824.133 816.251 812.726 831.851C807.401 839.134 794.09 853.568 791.558 860.987C781.081 891.696 775.325 926.495 765.929 957.528C765.811 953.127 765.855 950.033 764.914 945.67C761.616 942.343 761.151 948.191 753.849 947.593C749.944 945.199 750.577 946.302 748.544 942.739C748.924 940.638 749.924 939.81 751.306 938.129L751.904 937.409L751.206 935.742C747.86 934.185 746.787 934.449 742.965 934.408C747.057 916.993 751.38 899.633 755.933 882.333C757.787 875.201 762.874 854.411 766.169 848.716C782.283 820.863 806.605 792.587 825.731 766.248Z"/><path fill="#FBFBFB" transform="matrix(0.915838 0 0 0.945312 0 -0.000244141)" d="M1819.96 724.793L1845.63 724.691L1845.58 750.55L1875.89 750.607C1876.11 758.202 1875.88 764.332 1875.52 771.862C1865.74 772.313 1855.33 772.034 1845.48 771.941C1845.83 787.835 1844.95 803.891 1845.32 819.78C1845.86 842.446 1857.48 845.054 1876.19 837.777C1878.68 843.29 1880.18 847.069 1882.15 852.789L1882.86 854.502L1881.83 856.698C1875.07 861.912 1863.05 863.796 1854.66 863.676C1807.82 863.009 1819.99 804.618 1819.56 771.953L1801.33 772.195C1801.19 765.305 1801.36 757.886 1801.37 750.948L1819.51 750.966C1819.58 742.24 1819.73 733.516 1819.96 724.793Z"/><path fill="#FBFBFB" transform="matrix(0.915838 0 0 0.945312 0 -0.000244141)" d="M1491.76 764.376C1499.4 756.775 1518.89 744.987 1529.6 748.708C1534.03 753.637 1532.53 765.819 1532.47 773.28C1493.6 773.156 1491.4 792.864 1492.5 826.724C1492.87 838.269 1492.65 850.569 1493.07 862.198L1465.29 862.248C1465.58 846.884 1465.68 831.517 1465.59 816.151C1465.35 794.081 1465.3 772.01 1465.46 749.94C1472.86 749.905 1481.06 750.156 1488.29 748.898C1492.89 753.413 1490.92 757.256 1491.76 764.376Z"/><path fill="#3FCAA7" transform="matrix(0.915838 0 0 0.945312 0 -0.000244141)" d="M2187.45 709.5L2209.29 709.269C2209.72 744.829 2209.76 822.286 2208.55 861.099C2208.52 862.229 2206.91 862.166 2205.37 862.47L2183.42 862.472C2183.4 848.599 2182.37 714.077 2184.35 710.376L2187.45 709.5Z"/><path fill="#3FCAA7" fill-opacity="0.98823529" transform="matrix(0.915838 0 0 0.945312 0 -0.000244141)" d="M2125.58 750.96L2151.08 750.821C2150.89 774.072 2150.83 797.325 2150.91 820.577C2150.93 831.545 2150.33 851.979 2152.3 862.016C2146.1 861.925 2133.36 862.137 2127.83 860.81C2133.05 859.553 2141.87 859.966 2147.51 860C2147.91 829.444 2146.08 798.25 2147.57 767.686C2147.83 762.255 2149.04 758.385 2144.98 754.625C2140.6 755.597 2138.43 755.356 2133.49 756.773L2132.47 759.534C2130.83 758.544 2131.57 759.022 2130.6 756.588L2129.89 757.825C2131.64 766.235 2129.61 811.566 2128.05 820.271L2126.79 819.893L2125.77 814.227C2125.19 793.486 2125.52 771.79 2125.58 750.96Z"/><path fill="#0E141A" fill-opacity="0.011764706" transform="matrix(0.915838 0 0 0.945312 0 -0.000244141)" d="M1459.93 747.682C1466.2 747.477 1483.43 746.412 1488.29 748.898C1481.06 750.156 1472.86 749.905 1465.46 749.94C1465.3 772.01 1465.35 794.081 1465.59 816.151C1457.65 805.426 1459.69 763.044 1459.93 747.682Z"/><path fill="#0E141A" fill-opacity="0.11764706" transform="matrix(0.915838 0 0 0.945312 0 -0.000244141)" d="M653.868 646.67C654.95 640.054 657.131 619.283 660.94 615.324C665.296 618.325 667.688 645.329 668.277 651.39C661.829 645.48 664.237 633.236 661.118 630.927C659.936 636.495 657.692 642.399 653.868 646.67Z"/></svg>